name Walk9.mot
datacolumns 19
datarows 12
range 1.57200000 1.58300000
endheader

                time	   L_ground_force_vx	   L_ground_force_vy	   L_ground_force_vz	   L_ground_force_px	   L_ground_force_py	   L_ground_force_pz	   R_ground_force_vx	   R_ground_force_vy	   R_ground_force_vz	   R_ground_force_px	   R_ground_force_py	   R_ground_force_pz	   L_ground_torque_x	   L_ground_torque_y	   L_ground_torque_z	   R_ground_torque_x	   R_ground_torque_y	   R_ground_torque_z	
          1.57200000	          0.00000000	          0.00000000	          0.00000000	          0.00000000	          0.00000000	          0.00000000	         20.32971493	        636.42824548	         36.21760860	         -0.20312211	          0.00000000	         -0.05752563	          0.00000000	          0.00000000	          0.00000000	          0.00000000	         -1.29266556	          0.00000000	
          1.57300000	          0.00000000	          0.00000000	          0.00000000	          0.00000000	          0.00000000	          0.00000000	         20.59561764	        636.89558924	         36.45072425	         -0.20262647	          0.00000000	         -0.05757058	          0.00000000	          0.00000000	          0.00000000	          0.00000000	         -1.31284014	          0.00000000	
          1.57400000	          0.00000000	          0.00000000	          0.00000000	          0.00000000	          0.00000000	          0.00000000	         20.86707918	        637.31695703	         36.67613282	         -0.20212455	          0.00000000	         -0.05758373	          0.00000000	          0.00000000	          0.00000000	          0.00000000	         -1.33820448	          0.00000000	
          1.57500000	          0.00000000	          0.00000000	          0.00000000	          0.00000000	          0.00000000	          0.00000000	         21.14752757	        637.68448904	         36.88732525	         -0.20160033	          0.00000000	         -0.05758231	          0.00000000	          0.00000000	          0.00000000	          0.00000000	         -1.36123540	          0.00000000	
          1.57600000	          0.00000000	          0.00000000	          0.00000000	          0.00000000	          0.00000000	          0.00000000	         21.43368290	        638.04632333	         37.09100043	         -0.20105187	          0.00000000	         -0.05758147	          0.00000000	          0.00000000	          0.00000000	          0.00000000	         -1.37671634	          0.00000000	
          1.57700000	          0.00000000	          0.00000000	          0.00000000	          0.00000000	          0.00000000	          0.00000000	         21.72124129	        638.45844795	         37.29658727	         -0.20049264	          0.00000000	         -0.05757491	          0.00000000	          0.00000000	          0.00000000	          0.00000000	         -1.38340406	          0.00000000	
          1.57800000	          0.00000000	          0.00000000	          0.00000000	          0.00000000	          0.00000000	          0.00000000	         22.00692244	        638.93512269	         37.50550638	         -0.19993324	          0.00000000	         -0.05756162	          0.00000000	          0.00000000	          0.00000000	          0.00000000	         -1.38375118	          0.00000000	
          1.57900000	          0.00000000	          0.00000000	          0.00000000	          0.00000000	          0.00000000	          0.00000000	         22.29199301	        639.44901221	         37.71560167	         -0.19937567	          0.00000000	         -0.05756330	          0.00000000	          0.00000000	          0.00000000	          0.00000000	         -1.38141828	          0.00000000	
          1.58000000	          0.00000000	          0.00000000	          0.00000000	          0.00000000	          0.00000000	          0.00000000	         22.58209309	        639.97327525	         37.92933635	         -0.19882326	          0.00000000	         -0.05760011	          0.00000000	          0.00000000	          0.00000000	          0.00000000	         -1.37819714	          0.00000000	
          1.58100000	          0.00000000	          0.00000000	          0.00000000	          0.00000000	          0.00000000	          0.00000000	         22.88134441	        640.50484610	         38.14702149	         -0.19828371	          0.00000000	         -0.05767859	          0.00000000	          0.00000000	          0.00000000	          0.00000000	         -1.37473597	          0.00000000	
          1.58200000	          0.00000000	          0.00000000	          0.00000000	          0.00000000	          0.00000000	          0.00000000	         23.18661222	        641.04893276	         38.36093816	         -0.19775923	          0.00000000	         -0.05778935	          0.00000000	          0.00000000	          0.00000000	          0.00000000	         -1.37246691	          0.00000000	
          1.58300000	          0.00000000	          0.00000000	          0.00000000	          0.00000000	          0.00000000	          0.00000000	         23.48487339	        641.61021253	         38.56561766	         -0.19723838	          0.00000000	         -0.05790342	          0.00000000	          0.00000000	          0.00000000	          0.00000000	         -1.37380193	          0.00000000	
